<mxfile host="app.diagrams.net" agent="Mozilla/5.0 (Macintosh; Intel Mac OS X 10_15_7) AppleWebKit/537.36 (KHTML, like Gecko) Chrome/131.0.0.0 Safari/537.36" version="26.0.4">
  <diagram name="Page-1" id="_1WDO4HDsWCBWqfIt18v">
    <mxGraphModel dx="894" dy="1145" grid="1" gridSize="10" guides="1" tooltips="1" connect="1" arrows="1" fold="1" page="1" pageScale="1" pageWidth="850" pageHeight="1100" math="0" shadow="0">
      <root>
        <mxCell id="0" />
        <mxCell id="1" parent="0" />
        <mxCell id="94UZHsPEx87EQRsfGmTf-1" value="IFurnitureFactory&lt;div&gt;&lt;b&gt;CreateChair()&lt;/b&gt;&lt;/div&gt;" style="html=1;whiteSpace=wrap;" vertex="1" parent="1">
          <mxGeometry x="400" y="360" width="160" height="50" as="geometry" />
        </mxCell>
        <mxCell id="94UZHsPEx87EQRsfGmTf-7" value="ModernFurnitureFactory" style="swimlane;fontStyle=0;childLayout=stackLayout;horizontal=1;startSize=26;fillColor=none;horizontalStack=0;resizeParent=1;resizeParentMax=0;resizeLast=0;collapsible=1;marginBottom=0;whiteSpace=wrap;html=1;" vertex="1" parent="1">
          <mxGeometry x="320" y="560" width="170" height="52" as="geometry" />
        </mxCell>
        <mxCell id="94UZHsPEx87EQRsfGmTf-8" value="CreateChair()" style="text;strokeColor=none;fillColor=none;align=left;verticalAlign=top;spacingLeft=4;spacingRight=4;overflow=hidden;rotatable=0;points=[[0,0.5],[1,0.5]];portConstraint=eastwest;whiteSpace=wrap;html=1;" vertex="1" parent="94UZHsPEx87EQRsfGmTf-7">
          <mxGeometry y="26" width="170" height="26" as="geometry" />
        </mxCell>
        <mxCell id="94UZHsPEx87EQRsfGmTf-14" style="edgeStyle=orthogonalEdgeStyle;rounded=0;orthogonalLoop=1;jettySize=auto;html=1;entryX=0.75;entryY=1;entryDx=0;entryDy=0;" edge="1" parent="1" source="94UZHsPEx87EQRsfGmTf-9" target="94UZHsPEx87EQRsfGmTf-1">
          <mxGeometry relative="1" as="geometry" />
        </mxCell>
        <mxCell id="94UZHsPEx87EQRsfGmTf-9" value="VictoriaFurnitureFactory" style="swimlane;fontStyle=0;childLayout=stackLayout;horizontal=1;startSize=26;fillColor=none;horizontalStack=0;resizeParent=1;resizeParentMax=0;resizeLast=0;collapsible=1;marginBottom=0;whiteSpace=wrap;html=1;" vertex="1" parent="1">
          <mxGeometry x="520" y="560" width="160" height="52" as="geometry" />
        </mxCell>
        <mxCell id="94UZHsPEx87EQRsfGmTf-10" value="CreateChair()" style="text;strokeColor=none;fillColor=none;align=left;verticalAlign=top;spacingLeft=4;spacingRight=4;overflow=hidden;rotatable=0;points=[[0,0.5],[1,0.5]];portConstraint=eastwest;whiteSpace=wrap;html=1;" vertex="1" parent="94UZHsPEx87EQRsfGmTf-9">
          <mxGeometry y="26" width="160" height="26" as="geometry" />
        </mxCell>
        <mxCell id="94UZHsPEx87EQRsfGmTf-12" style="edgeStyle=orthogonalEdgeStyle;rounded=0;orthogonalLoop=1;jettySize=auto;html=1;exitX=0.5;exitY=0;exitDx=0;exitDy=0;entryX=0.175;entryY=1.06;entryDx=0;entryDy=0;entryPerimeter=0;" edge="1" parent="1" source="94UZHsPEx87EQRsfGmTf-7" target="94UZHsPEx87EQRsfGmTf-1">
          <mxGeometry relative="1" as="geometry" />
        </mxCell>
        <mxCell id="94UZHsPEx87EQRsfGmTf-15" value="IChair" style="swimlane;fontStyle=1;align=center;verticalAlign=top;childLayout=stackLayout;horizontal=1;startSize=26;horizontalStack=0;resizeParent=1;resizeParentMax=0;resizeLast=0;collapsible=1;marginBottom=0;whiteSpace=wrap;html=1;" vertex="1" parent="1">
          <mxGeometry x="850" y="358" width="160" height="52" as="geometry" />
        </mxCell>
        <mxCell id="94UZHsPEx87EQRsfGmTf-16" value="SitOn()" style="text;strokeColor=none;fillColor=none;align=left;verticalAlign=top;spacingLeft=4;spacingRight=4;overflow=hidden;rotatable=0;points=[[0,0.5],[1,0.5]];portConstraint=eastwest;whiteSpace=wrap;html=1;" vertex="1" parent="94UZHsPEx87EQRsfGmTf-15">
          <mxGeometry y="26" width="160" height="26" as="geometry" />
        </mxCell>
        <mxCell id="94UZHsPEx87EQRsfGmTf-26" style="edgeStyle=orthogonalEdgeStyle;rounded=0;orthogonalLoop=1;jettySize=auto;html=1;entryX=0.444;entryY=0.962;entryDx=0;entryDy=0;entryPerimeter=0;" edge="1" parent="1" source="94UZHsPEx87EQRsfGmTf-19" target="94UZHsPEx87EQRsfGmTf-16">
          <mxGeometry relative="1" as="geometry">
            <mxPoint x="920" y="420" as="targetPoint" />
          </mxGeometry>
        </mxCell>
        <mxCell id="94UZHsPEx87EQRsfGmTf-19" value="ModernChari" style="swimlane;fontStyle=1;align=center;verticalAlign=top;childLayout=stackLayout;horizontal=1;startSize=26;horizontalStack=0;resizeParent=1;resizeParentMax=0;resizeLast=0;collapsible=1;marginBottom=0;whiteSpace=wrap;html=1;" vertex="1" parent="1">
          <mxGeometry x="760" y="560" width="160" height="52" as="geometry" />
        </mxCell>
        <mxCell id="94UZHsPEx87EQRsfGmTf-20" value="SitOn()" style="text;strokeColor=none;fillColor=none;align=left;verticalAlign=top;spacingLeft=4;spacingRight=4;overflow=hidden;rotatable=0;points=[[0,0.5],[1,0.5]];portConstraint=eastwest;whiteSpace=wrap;html=1;" vertex="1" parent="94UZHsPEx87EQRsfGmTf-19">
          <mxGeometry y="26" width="160" height="26" as="geometry" />
        </mxCell>
        <mxCell id="94UZHsPEx87EQRsfGmTf-21" value="VictoriaChair" style="swimlane;fontStyle=1;align=center;verticalAlign=top;childLayout=stackLayout;horizontal=1;startSize=26;horizontalStack=0;resizeParent=1;resizeParentMax=0;resizeLast=0;collapsible=1;marginBottom=0;whiteSpace=wrap;html=1;" vertex="1" parent="1">
          <mxGeometry x="1000" y="560" width="160" height="52" as="geometry" />
        </mxCell>
        <mxCell id="94UZHsPEx87EQRsfGmTf-22" value="SitOn()" style="text;strokeColor=none;fillColor=none;align=left;verticalAlign=top;spacingLeft=4;spacingRight=4;overflow=hidden;rotatable=0;points=[[0,0.5],[1,0.5]];portConstraint=eastwest;whiteSpace=wrap;html=1;" vertex="1" parent="94UZHsPEx87EQRsfGmTf-21">
          <mxGeometry y="26" width="160" height="26" as="geometry" />
        </mxCell>
        <mxCell id="94UZHsPEx87EQRsfGmTf-24" style="edgeStyle=orthogonalEdgeStyle;rounded=0;orthogonalLoop=1;jettySize=auto;html=1;entryX=0.756;entryY=1;entryDx=0;entryDy=0;entryPerimeter=0;" edge="1" parent="1" source="94UZHsPEx87EQRsfGmTf-21" target="94UZHsPEx87EQRsfGmTf-16">
          <mxGeometry relative="1" as="geometry" />
        </mxCell>
        <mxCell id="94UZHsPEx87EQRsfGmTf-27" value="ClientService" style="swimlane;fontStyle=1;align=center;verticalAlign=top;childLayout=stackLayout;horizontal=1;startSize=26;horizontalStack=0;resizeParent=1;resizeParentMax=0;resizeLast=0;collapsible=1;marginBottom=0;whiteSpace=wrap;html=1;" vertex="1" parent="1">
          <mxGeometry x="640" y="200" width="160" height="52" as="geometry" />
        </mxCell>
        <mxCell id="94UZHsPEx87EQRsfGmTf-28" value="UseChair()" style="text;strokeColor=none;fillColor=none;align=left;verticalAlign=top;spacingLeft=4;spacingRight=4;overflow=hidden;rotatable=0;points=[[0,0.5],[1,0.5]];portConstraint=eastwest;whiteSpace=wrap;html=1;" vertex="1" parent="94UZHsPEx87EQRsfGmTf-27">
          <mxGeometry y="26" width="160" height="26" as="geometry" />
        </mxCell>
        <mxCell id="94UZHsPEx87EQRsfGmTf-31" style="edgeStyle=orthogonalEdgeStyle;rounded=0;orthogonalLoop=1;jettySize=auto;html=1;entryX=0.5;entryY=0;entryDx=0;entryDy=0;" edge="1" parent="1" source="94UZHsPEx87EQRsfGmTf-28" target="94UZHsPEx87EQRsfGmTf-15">
          <mxGeometry relative="1" as="geometry" />
        </mxCell>
        <mxCell id="94UZHsPEx87EQRsfGmTf-32" value="" style="endArrow=diamondThin;endFill=1;endSize=24;html=1;rounded=0;exitX=0.5;exitY=0;exitDx=0;exitDy=0;" edge="1" parent="1" source="94UZHsPEx87EQRsfGmTf-1">
          <mxGeometry width="160" relative="1" as="geometry">
            <mxPoint x="480" y="350" as="sourcePoint" />
            <mxPoint x="640" y="225.5" as="targetPoint" />
            <Array as="points">
              <mxPoint x="480" y="226" />
            </Array>
          </mxGeometry>
        </mxCell>
      </root>
    </mxGraphModel>
  </diagram>
</mxfile>
